# xmcd
# 
# Track frame offsets:
#     150
#     18361
#     39925
#     60922
#     79070
#     93343
#     113823
#     133120
#     150251
#     164975
# 
# Disc length: 2437
# 
# Revision: 2
# Processed by: cddbd v1.5.2PL0 Copyright (c) Steve Scherf et al.
# Submitted via: fre:ac v1.0.31
# 
DISCID=7109830a
DTITLE=Texas To The Bone - Texas To The Bone IV
DYEAR=0
DGENRE=Country
TTITLE0=DUB MILLER - INSANITY AND TEXAS
TTITLE1=WADE BOWEN and WEST 84 - TRY NOT TO LISTEN
TTITLE2=ADAM CARROLL - SOUTH OF TOWN
TTITLE3=TIM KREKEL - HAPPY TOWN
TTITLE4=SLAID CLEAVES - BROKE DOWN
TTITLE5=HARRIS and RYDEN - FOR THE BOYS
TTITLE6=TOMMY ALVERSON - TEXAS WOMAN
TTITLE7=OWEN TEMPLE - THIS AIN'T LAS VEGAS
TTITLE8=JAMIE RICHARDS - COLD IN MEXICO
TTITLE9=NATHAN HAMILTON - SHAPE I'M IN
EXTD=
EXTT0=
EXTT1=
EXTT2=
EXTT3=
EXTT4=
EXTT5=
EXTT6=
EXTT7=
EXTT8=
EXTT9=
PLAYORDER=
